<mxfile host="app.diagrams.net" modified="2024-05-16T08:59:27.832Z" agent="Mozilla/5.0 (Macintosh; Intel Mac OS X 10.15; rv:125.0) Gecko/20100101 Firefox/125.0" version="24.4.2" etag="TfGB0YT5HfJvEycp96Zu" type="github">
  <diagram name="Page-1" id="cUFuNr4oK09DtcS76mjE">
    <mxGraphModel>
      <root>
        <mxCell id="0" />
        <mxCell id="1" parent="0" />
      </root>
    </mxGraphModel>
  </diagram>
</mxfile>
